<svg version="1.1" xmlns="http://www.w3.org/2000/svg" xmlns:xlink="http://www.w3.org/1999/xlink" width="1560" height="804"><defs/><g><path fill="none" stroke="white" paint-order="fill stroke markers" d=" M 20 455.74747243552815 L 21 458.3193607716698 L 22 460.87450773871603 L 23 463.4121537993092 L 24 465.93154461837247 L 25 468.43193128734185 L 26 470.91257054678533 L 27 473.37272500734207 L 28 475.8116633689176 L 29 478.2286606380683 L 30 480.6229983435111 L 31 482.99396474969524 L 32 485.3408550683707 L 33 487.66297166809215 L 34 489.95962428159555 L 35 492.2301302109851 L 36 494.4738145306709 L 37 496.69001028799545 L 38 498.8780587014909 L 39 501.0373093567067 L 40 503.1671203995506 L 41 505.26685872708447 L 42 507.33590017571953 L 43 509.3736297067534 L 44 511.37944158919527 L 45 513.3527395798245 L 46 515.292937100428 L 47 517.1994574121658 L 48 519.0717337870104 L 49 520.909209676212 L 50 522.7113388757361 L 51 524.4775856886274 L 52 526.2074250842501 L 53 527.9003428543565 L 54 529.5558357659405 L 55 531.1734117108265 L 56 532.7525898519532 L 57 534.2929007663058 L 58 535.7938865844555 L 59 537.2551011266653 L 60 538.6761100355197 L 61 540.0564909050413 L 62 541.3958334062544 L 63 542.693739409158 L 64 543.9498231010731 L 65 545.1637111013291 L 66 546.3350425722537 L 67 547.4634693264345 L 68 548.5486559302208 L 69 549.5902798034338 L 70 550.5880313152559 L 71 551.541613876271 L 72 552.450744026628 L 73 553.3151515203016 L 74 554.1345794054247 L 75 554.9087841006697 L 76 555.6375354676544 L 77 556.3206168793533 L 78 556.9578252844912 L 79 557.548971267901 L 80 558.0938791068306 L 81 558.5923868231763 L 82 559.0443462316325 L 83 559.4496229837414 L 84 559.8080966078287 L 85 560.1196605448145 L 86 560.3842221798893 L 87 560.6017028700446 L 88 560.7720379674496 L 89 560.8951768386685 L 90 560.9710828797116 L 91 560.9997335269165 L 92 560.981120263655 L 93 560.9152486228647 L 94 560.8021381854044 L 95 560.6418225742334 L 96 560.4343494444172 L 97 560.1797804689611 L 98 559.8781913204781 L 99 559.5296716486938 L 100 559.134325053798 L 101 558.6922690556485 L 102 558.2036350588371 L 103 557.6685683136294 L 104 557.087227872787 L 105 556.4597865442885 L 106 555.7864308399608 L 107 555.067360920037 L 108 554.3027905336571 L 109 553.4929469553297 L 110 552.6380709173725 L 111 551.738416538353 L 112 550.7942512475498 L 113 549.8058557054569 L 114 548.7735237203555 L 115 547.6975621609768 L 116 546.5782908652834 L 117 545.4160425453946 L 118 544.2111626886852 L 119 542.9640094550867 L 120 541.6749535706216 L 121 540.3443782172018 L 122 538.9726789187253 L 123 537.5602634235031 L 124 536.1075515830537 L 125 534.6149752272978 L 126 533.0829780361945 L 127 531.5120154078534 L 128 529.9025543231639 L 129 528.2550732069823 L 130 526.5700617859151 L 131 524.8480209427446 L 132 523.089462567538 L 133 521.2949094054832 L 134 519.4648949014992 L 135 517.5999630416654 L 136 515.7006681915177 L 137 513.7675749312582 L 138 511.8012578879305 L 139 509.8023015646065 L 140 507.7713001666387 L 141 505.70885742502765 L 142 503.61558641695865 L 143 501.49210938355935 L 144 499.33905754493424 L 145 497.1570709125291 L 146 494.9467980988826 L 147 492.70889612482154 L 148 490.44403022415594 L 149 488.15287364593337 L 150 485.83610745431014 L 151 483.4944203260999 L 152 481.128508346059 L 153 478.7390747999698 L 154 476.32682996558356 L 155 473.89249090148496 L 156 471.4367812339407 L 157 468.9604309417959 L 158 466.4641761394822 L 159 463.94875885820227 L 160 461.4149268253549 L 161 458.86343324226743 L 162 456.2950365603008 L 163 453.71050025539364 L 164 451.1105926011136 L 165 448.49608644028154 L 166 445.86775895523834 L 167 443.22639143682136 L 168 440.5727690521193 L 169 437.9076806110757 L 170 435.2319183320085 L 171 432.5462776061173 L 172 429.851556761047 L 173 427.14855682357893 L 174 424.43808128151886 L 175 421.7209358448546 L 176 418.9979282062519 L 177 416.2698678009619 L 178 413.53756556620993 L 179 410.8018337001384 L 180 408.06348542037404 L 181 405.3233347222932 L 182 402.5821961370551 L 183 399.840884489476 L 184 397.10021465581644 L 185 394.3610013215527 L 186 391.6240587392052 L 187 388.8902004862957 L 188 386.1602392235051 L 189 383.43498645310325 L 190 380.71525227772446 L 191 378.0018451595572 L 192 375.29557168002304 L 193 372.5972363000138 L 194 369.90764112075937 L 195 367.22758564539663 L 196 364.5578665413115 L 197 361.8992774033226 L 198 359.2526085177795 L 199 356.61864662764367 L 200 353.9981746986233 L 201 351.39197168643017 L 202 348.8008123052297 L 203 346.22546679735046 L 204 343.6667007043238 L 205 341.1252746393208 L 206 338.60194406105416 L 207 336.09745904921203 L 208 333.61256408149075 L 209 331.1479978122936 L 210 328.70449285315965 L 211 326.28277555498926 L 212 323.8835657921307 L 213 321.507576748392 L 214 319.15551470504136 L 215 316.82807883085945 L 216 314.5259609743063 L 217 312.2498454578636 L 218 310.0004088746149 L 219 307.77831988712285 L 220 305.58423902866394 L 221 303.4188185068799 L 222 301.28270200990414 L 223 299.17652451501993 L 224 297.1009120999089 L 225 295.0564817565445 L 226 293.0438412077861 L 227 291.06358872672877 L 228 289.116312958862 L 229 287.2025927470901 L 230 285.32299695966674 L 231 283.4780843210945 L 232 281.6684032460394 L 233 279.8944916763105 L 234 278.15687692095275 L 235 276.45607549949966 L 236 274.79259298843465 L 237 273.1669238709036 L 238 271.57955138972665 L 239 270.03094740375025 L 240 268.5215722475831 L 241 267.05187459475866 L 242 265.6222913243629 L 243 264.23324739116913 L 244 262.8851556993164 L 245 261.57841697957076 L 246 260.3134196702051 L 247 259.09053980153226 L 248 257.91014088412777 L 249 256.772573800773 L 250 255.67817670215274 L 251 254.62727490633736 L 252 253.62018080207915 L 253 252.6571937559527 L 254 251.7386000233655 L 255 250.86467266346673 L 256 250.0356714579777 L 257 249.2518428339704 L 258 248.51341979061448 L 259 247.82062182991692 L 260 247.17365489147306 L 261 246.57271129124956 L 262 246.017969664417 L 263 245.50959491224913 L 264 245.0477381531046 L 265 244.63253667750615 L 266 244.26411390732952 L 267 243.94257935911565 L 268 243.66802861151592 L 269 243.44054327688067 L 270 243.26019097699924 L 271 243.12702532299892 L 272 243.0410858994086 L 273 243.00239825239203 L 274 243.0109738821539 L 275 243.06681023952137 L 276 243.16989072670194 L 277 243.32018470221706 L 278 243.5176474900107 L 279 243.76222039272966 L 280 244.05383070917173 L 281 244.39239175589674 L 282 244.77780289299386 L 283 245.20994955399772 L 284 245.68870327994392 L 285 246.2139217575548 L 286 246.7854488615429 L 287 247.40311470102046 L 288 248.06673567000098 L 289 248.77611450197736 L 290 249.53104032856098 L 291 250.33128874216393 L 292 251.17662186270596 L 293 252.0667884083262 L 294 253.0015237700785 L 295 253.98055009058885 L 296 255.00357634665022 L 297 256.0702984357317 L 298 257.18039926637545 L 299 258.3335488524543 L 300 259.5294044112633 L 301 260.7676104654135 L 302 262.0477989485016 L 303 263.36958931451966 L 304 264.73258865097574 L 305 266.1363917956902 L 306 267.58058145723317 L 307 269.06472833896794 L 308 270.5883912666623 L 309 272.15111731963145 L 310 273.7524419653721 L 311 275.39188919764814 L 312 277.0689716779876 L 313 278.78319088054724 L 314 280.5340372403041 L 315 282.32099030452673 L 316 284.14351888748433 L 317 286.00108122834615 L 318 287.8931251522232 L 319 289.8190882343077 L 320 291.77839796705706 L 321 293.770471930377 L 322 295.7947179647506 L 323 297.85053434726126 L 324 299.937309970461 L 325 302.05442452402576 L 326 304.2012486791478 L 327 306.377144275609 L 328 308.5814645114784 L 329 310.8135541353795 L 330 313.0727496412684 L 331 315.35837946566704 L 332 317.6697641872895 L 333 320.0062167290059 L 334 322.367042562082 L 335 324.7515399126318 L 336 327.1589999702269 L 337 329.5887070985948 L 338 332.0399390483477 L 339 334.51196717167727 L 340 337.00405663894986 L 341 339.51546665714153 L 342 342.04545069004325 L 343 344.59325668017607 L 344 347.1581272723447 L 345 349.73930003876796 L 346 352.3360077057166 L 347 354.94747838159054 L 348 357.5729357863708 L 349 360.2115994823737 L 350 362.86268510624257 L 351 365.5254046021062 L 352 368.1989664558338 L 353 370.88257593031955 L 354 373.57543530172364 L 355 376.27674409660244 L 356 378.98569932985555 L 357 381.7014957434186 L 358 384.42332604563376 L 359 387.15038115122206 L 360 389.8818504217915 L 361 392.6169219068048 L 362 395.3547825849384 L 363 398.0946186057596 L 364 400.83561553164924 L 365 403.57695857990063 L 366 406.317832864919 L 367 409.0574236404533 L 368 411.7949165417858 L 369 414.52949782780803 L 370 417.26035462291213 L 371 419.98667515862377 L 372 422.7076490149077 L 373 425.4224673610703 L 374 428.1303231961914 L 375 430.8304115890119 L 376 433.5219299172049 L 377 436.20407810596265 L 378 438.876058865824 L 379 441.5370779296752 L 380 444.18634428885264 L 381 446.8230704282752 L 382 449.4464725605403 L 383 452.05577085891025 L 384 454.65018968912165 L 385 457.22895783994954 L 386 459.791308752455 L 387 462.3364807478515 L 388 464.86371725391933 L 389 467.372267029903 L 390 469.8613843898232 L 391 472.33032942413746 L 392 474.77836821968504 L 393 477.20477307784694 L 394 479.60882273086145 L 395 481.98980255622536 L 396 484.3470047891216 L 397 486.6797287328083 L 398 488.98728096690536 L 399 491.2689755535201 L 400 493.52413424114667 L 401 495.7520866662826 L 402 497.9521705526987 L 403 500.12373190830624 L 404 502.26612521956133 L 405 504.3787136433484 L 406 506.4608691962875 L 407 508.5119729414063 L 408 510.53141517212475 L 409 512.5185955934949 L 410 514.4729235006428 L 411 516.3938179543609 L 412 518.2807079537961 L 413 520.1330326061844 L 414 521.9502412935811 L 415 523.7317938365353 L 416 525.4771606546636 L 417 527.1858229240711 L 418 528.8572727315762 L 419 530.491013225692 L 420 532.0865587643184 L 421 533.6434350591045 L 422 535.1611793164329 L 423 536.6393403749897 L 424 538.0774788398757 L 425 539.475167213219 L 426 540.8319900212537 L 427 542.147543937821 L 428 543.4214379042623 L 429 544.653293245664 L 430 545.8427437834214 L 431 546.9894359440883 L 432 548.0930288644795 L 433 549.1531944929951 L 434 550.1696176871362 L 435 551.1419963071835 L 436 552.0700413060108 L 437 552.9534768150066 L 438 553.792040226078 L 439 554.5854822697129 L 440 555.3335670890776 L 441 556.0360723101271 L 442 556.692789107707 L 443 557.303522267629 L 444 557.8680902446997 L 445 558.3863252166861 L 446 558.8580731342023 L 447 559.2831937665017 L 448 559.6615607431618 L 449 559.9930615916487 L 450 560.2775977707507 L 451 560.51508469987 L 452 560.7054517841653 L 453 560.8486424355367 L 454 560.9446140894465 L 455 560.9933382175725 L 456 560.9948003362875 L 457 560.9490000109655 L 458 560.8559508561101 L 459 560.7156805313083 L 460 560.5282307330076 L 461 560.293657182122 L 462 560.0120296074687 L 463 559.6834317250397 L 464 559.3079612131177 L 465 558.8857296832398 L 466 558.4168626470203 L 467 557.9014994788413 L 468 557.3397933744226 L 469 556.7319113052833 L 470 556.0780339691079 L 471 555.3783557360327 L 472 554.6330845908677 L 473 553.8424420712714 L 474 553.0066632018973 L 475 552.1259964245303 L 476 551.2007035242367 L 477 550.2310595515452 L 478 549.2173527406867 L 479 548.1598844239141 L 480 547.0589689419297 L 481 545.9149335504441 L 482 544.7281183228966 L 483 543.4988760493674 L 484 542.227572131706 L 485 540.914584474914 L 486 539.5603033748097 L 487 538.1651314020086 L 488 536.7294832822574 L 489 535.2537857731534 L 490 533.7384775372865 L 491 532.1840090118444 L 492 530.5908422747159 L 493 528.959450907135 L 494 527.2903198529053 L 495 525.5839452742465 L 496 523.8408344043062 L 497 522.0615053963809 L 498 520.2464871698912 L 499 518.3963192531561 L 500 516.511551623014 L 501 514.5927445413384 L 502 512.6404683884941 L 503 510.6553034937891 L 504 508.6378399629662 L 505 506.58867750278944 L 506 504.5084252427771 L 507 502.3977015541322 L 508 500.25713386592804 L 509 498.0873584785994 L 510 495.8890203747975 L 511 493.66277302766304 L 512 491.4092782065776 L 513 489.12920578044657 L 514 486.82323351857576 L 515 484.4920468891993 L 516 482.13633885571767 L 517 479.7568096707111 L 518 477.35416666778224 L 519 474.9291240512964 L 520 472.4824026840789 L 521 470.01472987313224 L 522 467.5268391534393 L 523 465.0194700699139 L 524 462.4933679575654 L 525 459.94928371994223 L 526 457.387973605919 L 527 454.81019898489717 L 528 452.216726120481 L 529 449.60832594270005 L 530 446.98577381884434 L 531 444.3498493229795 L 532 441.7013360042136 L 533 439.04102115378055 L 534 436.3696955710112 L 535 433.68815332826296 L 536 430.99719153487416 L 537 428.2976101002187 L 538 425.59021149592604 L 539 422.87580051734034 L 540 420.1551840442879 L 541 417.42917080122754 L 542 414.6985711168496 L 543 411.9641966832001 L 544 409.2268603143988 L 545 406.48737570502294 L 546 403.74655718823203 L 547 401.0052194936995 L 548 398.26417750542845 L 549 395.52424601952134 L 550 392.7862395019743 L 551 390.05097184657234 L 552 387.31925613295215 L 553 384.591904384908 L 554 381.86972732901165 L 555 379.15353415361653 L 556 376.4441322683216 L 557 373.7423270639617 L 558 371.04892167319906 L 559 368.36471673178613 L 560 365.690510140569 L 561 363.02709682830744 L 562 360.3752685153742 L 563 357.735813478411 L 564 355.1095163160068 L 565 352.49715771546914 L 566 349.8995142207601 L 567 347.3173580016616 L 568 344.75145662424234 L 569 342.20257282269176 L 570 339.6714642725932 L 571 337.15888336569736 L 572 334.66557698626883 L 573 332.19228628906865 L 574 329.7397464790396 L 575 327.3086865927623 L 576 324.89982928174214 L 577 322.51389059759606 L 578 320.1515797792006 L 579 317.81359904186434 L 580 315.5006433685902 L 581 313.2134003034856 L 582 310.9525497473846 L 583 308.7187637557424 L 584 306.51270633886077 L 585 304.33503326450716 L 586 302.1863918629815 L 587 300.0674208346929 L 588 297.9787500603006 L 589 295.9210004134767 L 590 293.8947835763476 L 591 291.90070185766604 L 592 289.93934801377003 L 593 288.01130507238213 L 594 286.11714615929856 L 595 284.2574343280247 L 596 282.4327223924021 L 597 280.64355276228054 L 598 278.8904572822818 L 599 277.1739570737059 L 600 275.49456237962283 L 601 273.8527724131993 L 602 272.24907520930356 L 603 270.6839474794326 L 604 269.1578544700071 L 605 267.6712498240729 L 606 266.22457544645135 L 607 264.8182613723808 L 608 263.452725639684 L 609 262.12837416450446 L 610 260.8456006206437 L 611 259.604786322539 L 612 258.406300111915 L 613 257.25049824814164 L 614 256.13772430233473 L 615 255.06830905522546 L 616 254.04257039883404 L 617 253.06081324197353 L 618 252.12332941961316 L 619 251.23039760612843 L 620 250.3822832324629 L 621 249.57923840722663 L 622 248.82150184175507 L 623 248.10929877915007 L 624 247.44284092732488 L 625 246.82232639607216 L 626 246.2479396381743 L 627 245.71985139457334 L 628 245.23821864361713 L 629 244.80318455439598 L 630 244.41487844418484 L 631 244.07341574000242 L 632 243.77889794429979 L 633 243.53141260478802 L 634 243.3310332884139 L 635 243.17781955949147 L 636 243.07181696199626 L 637 243.0130570060268 L 638 243.00155715843815 L 639 243.03732083764967 L 640 243.1203374126289 L 641 243.25058220605163 L 642 243.4280165016376 L 643 243.65258755565895 L 644 243.92422861261903 L 645 244.24285892509573 L 646 244.60838377774434 L 647 245.0206945154526 L 648 245.47966857563904 L 649 245.98516952468574 L 650 246.5370470984944 L 651 247.13513724715327 L 652 247.77926218370266 L 653 248.46923043698308 L 654 249.20483690855173 L 655 249.98586293364954 L 656 250.81207634620128 L 657 251.68323154782826 L 658 252.5990695808546 L 659 253.5593182052845 L 660 254.56369197972745 L 661 255.6118923462484 L 662 256.7036077191157 L 663 257.8385135774231 L 664 259.01627256155564 L 665 260.2365345734724 L 666 261.4989368807767 L 667 262.8031042245399 L 668 264.1486489308508 L 669 265.53517102605474 L 670 266.9622583556484 L 671 268.42948670679675 L 672 269.9364199344327 L 673 271.4826100909052 L 674 273.06759755913504 L 675 274.6909111892395 L 676 276.3520684385858 L 677 278.05057551522975 L 678 279.7859275247001 L 679 281.5576086200821 L 680 283.36509215535654 L 681 285.20784084195054 L 682 287.0853069084494 L 683 288.99693226342686 L 684 290.94214866134143 L 685 292.9203778714531 L 686 294.93103184970516 L 687 296.9735129135262 L 688 299.0472139194951 L 689 301.15151844381984 L 690 303.2858009655742 L 691 305.449427052638 L 692 307.6417535502877 L 693 309.8621287723789 L 694 312.109892695065 L 695 314.3843771529953 L 696 316.68490603793083 L 697 319.01079549972405 L 698 321.3613541495982 L 699 323.73588326566767 L 700 326.1336770006396 L 701 328.5540225916312 L 702 330.9962005720448 L 703 333.4594849854347 L 704 335.9431436013033 L 705 338.44643813276315 L 706 340.96862445599703 L 707 343.5089528314556 L 708 346.066668126723 L 709 348.64101004098575 L 710 351.23121333103893 L 711 353.8365080387592 L 712 356.45611971998187 L 713 359.08926967471024 L 714 361.7351751785908 L 715 364.3930497155829 L 716 367.06210321175763 L 717 369.74154227015356 L 718 372.4305704066194 L 719 375.1283882865765 L 720 377.83419396262576 L 721 380.5471831129335 L 722 383.26654928032247 L 723 385.9914841119969 L 724 388.7211775998332 L 725 391.4548183211591 L 726 394.19159367995684 L 727 396.9306901484131 L 728 399.67129350874643 L 729 402.41258909524083 L 730 405.15376203640983 L 731 407.8939974972246 L 732 410.6324809213294 L 733 413.3683982731751 L 734 416.1009362799982 L 735 418.82928267357113 L 736 421.55262643165617 L 737 424.27015801908817 L 738 426.9810696284147 L 739 429.68455542002414 L 740 432.37981176168637 L 741 435.06603746743974 L 742 437.74243403574917 L 743 440.4082058868682 L 744 443.06256059932946 L 745 445.7047091454996 L 746 448.333866126123 L 747 450.9492500037882 L 748 453.5500833352467 L 749 456.13559300251256 L 750 458.7050104426786 L 751 461.2575718763777 L 752 463.79251853482197 L 753 466.30909688535337 L 754 468.8065588554359 L 755 471.28416205502697 L 756 473.74116999725834 L 757 476.17685231736226 L 758 478.5904849897794 L 759 480.9813505433791 L 760 483.3487382747347 L 761 485.69194445938535 L 762 488.0102725610229 L 763 490.30303343854433 L 764 492.5695455509026 L 765 494.80913515970093 L 766 497.0211365294667 L 767 499.2048921255461 L 768 501.3597528095626 L 769 503.48507803237686 L 770 505.5802360244957 L 771 507.6446039838705 L 772 509.6775682610305 L 773 511.67852454149363 L 774 513.6468780254046 L 775 515.5820436043435 L 776 517.4834460352542 L 777 519.3505201114396 L 778 521.1827108305732 L 779 522.9794735596789 L 780 524.7402741970266 L 781 526.464589330898 L 782 528.1519063951761 L 783 529.8017238217077 L 784 531.4135511893999 L 785 532.9869093700003 L 786 534.5213306705228 L 787 536.0163589722727 L 788 537.4715498664307 L 789 538.8864707861578 L 790 540.2607011351789 L 791 541.5938324128083 L 792 542.8854683353798 L 793 544.1352249540447 L 794 545.3427307689042 L 795 546.5076268394403 L 796 547.6295668912135 L 797 548.7082174187962 L 798 549.743257784909 L 799 550.7343803157331 L 800 551.6812903923689 L 801 552.5837065384131 L 802 553.4413605036307 L 803 554.2539973436934 L 804 555.0213754959648 L 805 555.7432668513057 L 806 556.4194568218829 L 807 557.0497444049553 L 808 557.6339422426247 L 809 558.1718766775289 L 810 558.6633878044631 L 811 559.1083295179128 L 812 559.5065695554844 L 813 559.8579895372218 L 814 560.1624850007955 L 815 560.4199654325549 L 816 560.6303542944343 L 817 560.793589046704 L 818 560.9096211665612 L 819 560.9784161625537 L 820 560.9999535848324 L 821 560.9742270312307 L 822 560.9012441491673 L 823 560.7810266333729 L 824 560.6136102194413 L 825 560.399044673207 L 826 560.1373937759513 L 827 559.8287353054434 L 828 559.4731610128205 L 829 559.0707765953132 L 830 558.6217016648268 L 831 558.1260697123859 L 832 557.5840280684524 L 833 556.9957378591313 L 834 556.361373958274 L 835 555.6811249354961 L 836 554.955193000123 L 837 554.1837939410827 L 838 553.3671570627598 L 839 552.5055251168335 L 840 551.5991542301175 L 841 550.6483138284245 L 842 549.6532865564777 L 843 548.6143681938913 L 844 547.5318675672489 L 845 546.4061064583017 L 846 545.2374195083164 L 847 544.026154118601 L 848 542.7726703472364 L 849 541.4773408020468 L 850 540.1405505298387 L 851 538.7626969019431 L 852 537.3441894960936 L 853 535.8854499746764 L 854 534.3869119593876 L 855 532.8490209023357 L 856 531.2722339536282 L 857 529.6570198254792 L 858 528.0038586528818 L 859 526.3132418508836 L 860 524.5856719685103 L 861 522.8216625393788 L 862 521.0217379290455 L 863 519.1864331791343 L 864 517.3162938482913 L 865 515.4118758500135 L 866 513.4737452873994 L 867 511.50247828486954 L 868 509.4986608169101 L 869 507.4628885338862 L 870 505.3957665849816 L 871 503.2979094383122 L 872 501.1699406982715 L 873 499.0124929201586 L 874 496.82620742214624 L 875 494.61173409464476 L 876 492.36973120711633 L 877 490.1008652123996 L 878 487.80581054860136 L 879 485.4852494386139 L 880 483.1398716873201 L 881 480.7703744765428 L 882 478.37746215780226 L 883 475.9618460429422 L 884 473.5242441926863 L 885 471.0653812031899 L 886 468.58598799064777 L 887 466.08680157402375 L 888 463.56856485596506 L 889 461.03202640197037 L 890 458.47794021787183 L 891 455.90706552570117 L 892 453.3201665380052 L 893 450.71801223067683 L 894 448.10137611437244 L 895 445.4710360045788 L 896 442.8277737904015 L 897 440.1723752021428 L 898 437.5056295777359 L 899 434.82832962810966 L 900 432.14127120154836 L 901 429.44525304711954 L 902 426.7410765772399 L 903 424.0295456294483 L 904 421.31146622746024 L 905 418.58764634157006 L 906 415.8588956484757 L 907 413.1260252905963 L 908 410.3898476349525 L 909 407.65117603168596 L 910 404.91082457228345 L 911 402.1696078475819 L 912 399.42834070562554 L 913 396.6878380094447 L 914 393.94891439483297 L 915 391.2123840281893 L 916 388.4790603645016 L 917 385.74975590553913 L 918 383.0252819583323 L 919 380.3064483940038 L 920 377.5940634070286 L 921 374.8889332749921 L 922 372.19186211891656 L 923 369.5036516642317 L 924 366.82510100245446 L 925 364.1570063536529 L 926 361.50016082976396 L 927 358.8553541988339 L 928 356.22337265025465 L 929 353.6049985610624 L 930 351.00101026336995 L 931 348.4121818130013 L 932 345.8392827593977 L 933 343.2830779168634 L 934 340.74432713721694 L 935 338.223785083922 L 936 335.72220100775576 L 937 333.2403185240891 L 938 330.77887539184076 L 939 328.338603294173 L 940 325.920227620993 L 941 323.52446725332493 L 942 321.1520343496171 L 943 318.8036341340479 L 944 316.47996468689024 L 945 314.1817167370047 L 946 311.9095734565133 L 947 309.66421025772115 L 948 307.4462945923458 L 949 305.2564857531112 L 950 303.095434677768 L 951 300.96378375559755 L 952 298.8621666364563 L 953 296.79120804241916 L 954 294.75152358207384 L 955 292.7437195675296 L 956 290.76839283418394 L 957 288.82613056330945 L 958 286.9175101075094 L 959 285.04309881909523 L 960 283.20345388143676 L 961 281.39912214333475 L 962 279.63063995646667 L 963 277.8985330159502 L 964 276.20331620407853 L 965 274.54549343726603 L 966 272.9255575162557 L 967 271.34398997963035 L 968 269.80126096067113 L 969 268.2978290476073 L 970 266.8341411472968 L 971 265.4106323523799 L 972 264.02772581194483 L 973 262.6858326057424 L 974 261.3853516219907 L 975 260.12666943880174 L 976 258.91016020926804 L 977 257.7361855502427 L 978 256.6050944348465 L 979 255.51722308873207 L 980 254.47289489013897 L 981 253.47242027376657 L 982 252.51609663849518 L 983 251.60420825898115 L 984 250.73702620115526 L 985 249.91480824164532 L 986 249.13779879115046 L 987 248.40622882178792 L 988 247.72031579843494 L 989 247.08026361408557 L 990 246.4862625292419 L 991 245.93848911535784 L 992 245.4371062023512 L 993 244.98226283020216 L 994 244.57409420464936 L 995 244.21272165699915 L 996 243.89825260805878 L 997 243.63078053620495 L 998 243.41038494959633 L 999 243.2371313625395 L 1000 243.11107127601392 L 1001 243.03224216236327 L 1002 243.00066745415612 L 1003 243.01635653722064 L 1004 243.07930474785465 L 1005 243.18949337421168 L 1006 243.34688966186346 L 1007 243.55144682353634 L 1008 243.8031040530191 L 1009 244.10178654323818 L 1010 244.44740550849463 L 1011 244.83985821085625 L 1012 245.27902799069759 L 1013 245.76478430137743 L 1014 246.29698274804508 L 1015 246.87546513056293 L 1016 247.50005949053252 L 1017 248.1705801624105 L 1018 248.88682782869932 L 1019 249.6485895791958 L 1020 250.45563897428022 L 1021 251.30773611222784 L 1022 252.20462770052075 L 1023 253.14604713114144 L 1024 254.13171455982425 L 1025 255.16133698924102 L 1026 256.23460835609694 L 1027 257.35120962211016 L 1028 258.5108088688486 L 1029 259.7130613963951 L 1030 260.9576098258119 L 1031 262.2440842053756 L 1032 263.5721021205462 L 1033 264.9412688076444 L 1034 266.35117727119734 L 1035 267.80140840492163 L 1036 269.29153111630563 L 1037 270.8211024547555 L 1038 272.3896677432651 L 1039 273.9967607135728 L 1040 275.6419036447628 L 1041 277.32460750527287 L 1042 279.0443720982604 L 1043 280.8006862102917 L 1044 282.5930277633035 L 1045 284.42086396979477 L 1046 286.283651491202 L 1047 288.1808365994109 L 1048 290.1118553413561 L 1049 292.0761337066607 L 1050 294.07308779826644 L 1051 296.1021240059995 L 1052 298.1626391830273 L 1053 300.25402082514825 L 1054 302.37564725286325 L 1055 304.52688779617506 L 1056 306.70710298205955 L 1057 308.91564472455417 L 1058 311.15185651740654 L 1059 313.41507362922573 L 1060 315.7046233010805 L 1061 318.0198249464795 L 1062 320.35999035368263 L 1063 322.724423890277 L 1064 325.11242270995905 L 1065 327.5232769614611 L 1066 329.9562699995601 L 1067 332.41067859810613 L 1068 334.885773165007 L 1069 337.38081795910455 L 1070 339.8950713088816 L 1071 342.4277858329265 L 1072 344.97820866210014 L 1073 347.54558166333163 L 1074 350.1291416649792 L 1075 352.7281206836892 L 1076 355.3417461526848 L 1077 357.9692411514176 L 1078 360.6098246365128 L 1079 363.2627116739428 L 1080 365.9271136723513 L 1081 368.6022386174707 L 1082 371.28729130755386 L 1083 373.9814735897541 L 1084 376.6839845973822 L 1085 379.3940209879706 L 1086 382.1107771820726 L 1087 384.8334456027278 L 1088 387.5612169155198 L 1089 390.29328026915937 L 1090 393.0288235365128 L 1091 395.76703355601575 L 1092 398.5070963733908 L 1093 401.24819748360204 L 1094 403.9895220729729 L 1095 406.7302552613958 L 1096 409.4695823445618 L 1097 412.2066890361377 L 1098 414.9407617098184 L 1099 417.67098764118595 L 1100 420.396555249295 L 1101 423.1166543379234 L 1102 425.83047633640945 L 1103 428.537214540005 L 1104 431.2360643496754 L 1105 433.92622351127267 L 1106 436.6068923540115 L 1107 439.27727402817754 L 1108 441.9365747419989 L 1109 444.5840039976042 L 1110 447.21877482600587 L 1111 449.8401040210326 L 1112 452.4472123721434 L 1113 455.03932489605404 L 1114 457.61567106710686 L 1115 460.17548504631543 L 1116 462.71800590901637 L 1117 465.2424778710593 L 1118 467.74815051347207 L 1119 470.2342790055251 L 1120 472.7001243261405 L 1121 475.14495348357127 L 1122 477.56803973328863 L 1123 479.9686627940129 L 1124 482.3461090618222 L 1125 484.69967182227714 L 1126 487.0286514604972 L 1127 489.33235566912595 L 1128 491.6100996541271 L 1129 493.8612063383416 L 1130 496.08500656275646 L 1131 498.28083928541656 L 1132 500.4480517779248 L 1133 502.58599981947066 L 1134 504.69404788832986 L 1135 506.771569350778 L 1136 508.8179466473622 L 1137 510.8325714764768 L 1138 512.8148449751835 L 1139 514.7641778972295 L 1140 516.6799907882055 L 1141 518.5617141577925 L 1142 520.4087886490477 L 1143 522.2206652046773 L 1144 523.9968052302486 L 1145 525.7366807542909 L 1146 527.4397745852391 L 1147 529.105580465174 L 1148 530.7336032203095 L 1149 532.3233589081888 L 1150 533.8743749615384 L 1151 535.3861903287439 L 1152 536.8583556108999 L 1153 538.2904331953987 L 1154 539.6819973860123 L 1155 541.0326345294357 L 1156 542.3419431382472 L 1157 543.609534010255 L 1158 544.835030344189 L 1159 546.0180678517092 L 1160 547.1582948656928 L 1161 548.2553724447696 L 1162 549.3089744740759 L 1163 550.3187877621936 L 1164 551.2845121342498 L 1165 552.205860521145 L 1166 553.0825590448883 L 1167 553.9143471000078 L 1168 554.700977431019 L 1169 555.4422162059229 L 1170 556.1378430857144 L 1171 556.7876512898797 L 1172 557.3914476578641 L 1173 557.9490527064893 L 1174 558.4603006833072 L 1175 558.9250396158706 L 1176 559.3431313569084 L 1177 559.7144516253909 L 1178 560.0388900434731 L 1179 560.3163501693057 L 1180 560.546749525703 L 1181 560.7300196246601 L 1182 560.8661059877111 L 1183 560.9549681621234 L 1184 560.996579732923 L 1185 560.990928330746 L 1186 560.9380156355157 L 1187 560.8378573759434 L 1188 560.6904833248526 L 1189 560.495937290329 L 1190 560.2542771026983 L 1191 559.9655745973354 L 1192 559.6299155933108 L 1193 559.2473998678806 L 1194 558.8181411268266 L 1195 558.3422669706563 L 1196 557.8199188566729 L 1197 557.2512520569258 L 1198 556.636435612055 L 1199 555.9756522810425 L 1200 555.269098486885 L 1201 554.516984258207 L 1202 553.7195331668267 L 1203 552.8769822612986 L 1204 551.9895819964488 L 1205 551.0575961589243 L 1206 550.081301788782 L 1207 549.0609890971353 L 1208 547.9969613798869 L 1209 546.8895349275717 L 1210 545.7390389313368 L 1211 544.5458153850873 L 1212 543.3102189838255 L 1213 542.0326170182152 L 1214 540.7133892654022 L 1215 539.352927876121 L 1216 537.9516372581271 L 1217 536.509933955982 L 1218 535.0282465272329 L 1219 533.5070154150203 L 1220 531.9466928171528 L 1221 530.3477425516882 L 1222 528.7106399190593 L 1223 527.0358715607881 L 1224 525.323935314826 L 1225 523.5753400675701 L 1226 521.7906056025909 L 1227 519.970262446123 L 1228 518.1148517093626 L 1229 516.224924927617 L 1230 514.3010438963578 L 1231 512.3437805042211 L 1232 510.3537165630104 L 1233 508.3314436347488 L 1234 506.27756285583035 L 1235 504.19268475833064 L 1236 502.0774290885193 L 1237 499.93242462263623 L 1238 497.75830897998287 L 1239 495.55572843338496 L 1240 493.3253377170829 L 1241 491.06779983210686 L 1242 488.7837858491945 L 1243 486.4739747093104 L 1244 484.1390530218241 L 1245 481.77971486041224 L 1246 479.3966615567384 L 1247 476.9906014919772 L 1248 474.5622498862421 L 1249 472.1123285859812 L 1250 469.64156584940224 L 1251 467.1506961299926 L 1252 464.64045985819735 L 1253 462.111603221319 L 1254 459.56487794171005 L 1255 457.00104105331604 L 1256 454.4208546766414 L 1257 451.82508579220377 L 1258 449.21450601254236 L 1259 446.5898913528507 L 1260 443.95202200029973 L 1261 441.30168208212126 L 1262 438.6396594325204 L 1263 435.96674535848365 L 1264 433.2837344045601 L 1265 430.59142411667443 L 1266 427.8906148050509 L 1267 425.1821093063148 L 1268 422.46671274484316 L 1269 419.745232293435 L 1270 417.01847693337305 L 1271 414.28725721394784 L 1272 411.55238501151615 L 1273 408.81467328816206 L 1274 406.0749358500409 L 1275 403.33398710546726 L 1276 400.5926418228258 L 1277 397.8517148883752 L 1278 395.11202106401714 L 1279 392.37437474510136 L 1280 389.63958971834086 L 1281 386.90847891990774 L 1282 384.1818541937794 L 1283 381.46052605041496 L 1284 378.74530342582244 L 1285 376.0369934410968 L 1286 373.336401162497 L 1287 370.6443293621336 L 1288 367.9615782793385 L 1289 365.2889453827877 L 1290 362.6272251334475 L 1291 359.9772087484152 L 1292 357.33968396572163 L 1293 354.715434810173 L 1294 352.10524136029136 L 1295 349.50987951643054 L 1296 346.93012077013395 L 1297 344.36673197480263 L 1298 341.8204751177419 L 1299 339.2921070936551 L 1300 336.7823794796502 L 1301 334.2920383118287 L 1302 331.82182386351815 L 1303 329.3724704252234 L 1304 326.94470608635095 L 1305 324.539252518779 L 1306 322.1568247623352 L 1307 319.7981310122453 L 1308 317.4638724086165 L 1309 315.15474282801836 L 1310 312.87142867722275 L 1311 310.6146086891624 L 1312 308.38495372117507 L 1313 306.1831265555839 L 1314 304.009781702681 L 1315 301.8655652061687 L 1316 299.7511144511185 L 1317 297.66705797450317 L 1318 295.61401527835903 L 1319 293.59259664563467 L 1320 291.6034029587794 L 1321 289.647025521125 L 1322 287.7240458811185 L 1323 285.8350356594509 L 1324 283.9805563791387 L 1325 282.16115929860666 L 1326 280.3773852478224 L 1327 278.6297644675301 L 1328 276.9188164516324 L 1329 275.24504979276674 L 1330 273.6089620311227 L 1331 272.0110395065429 L 1332 270.4517572139566 L 1333 268.93157866218263 L 1334 267.4509557361479 L 1335 266.0103285625611 L 1336 264.61012537908175 L 1337 263.2507624070231 L 1338 261.9326437276273 L 1339 260.65616116194894 L 1340 259.4216941543825 L 1341 258.22960965987113 L 1342 257.080262034825 L 1343 255.97399293178697 L 1344 254.91113119787306 L 1345 253.8919927770206 L 1346 252.91688061607104 L 1347 251.98608457471693 L 1348 251.0998813393387 L 1349 250.25853434075773 L 1350 249.46229367592875 L 1351 248.7113960335976 L 1352 248.00606462394296 L 1353 247.34650911222568 L 1354 246.73292555646398 L 1355 246.1654963491537 L 1356 245.64439016305082 L 1357 245.1697619010321 L 1358 244.74175265004894 L 1359 244.36048963918836 L 1360 244.02608620185273 L 1361 243.7386417420712 L 1362 243.4982417049505 L 1363 243.304957551276 L 1364 243.1588467362694 L 1365 243.0599526925096 L 1366 243.0083048170222 L 1367 243.00391846254084 L 1368 243.0467949329436 L 1369 243.13692148286538 L 1370 243.27427132148648 L 1371 243.45880362049652 L 1372 243.69046352623087 L 1373 243.96918217597639 L 1374 244.2948767184413 L 1375 244.66745033838353 L 1376 245.0867922853897 L 1377 245.5527779067966 L 1378 246.06526868474495 L 1379 246.6241122773555 L 1380 247.2291425640131 L 1381 247.8801796947478 L 1382 248.57703014369653 L 1383 249.3194867666302 L 1384 250.1073288625289 L 1385 250.94032223918705 L 1386 251.81821928282886 L 1387 252.74075903171337 L 1388 253.70766725370723 L 1389 254.71865652780318 L 1390 255.77342632955686 L 1391 256.871663120421 L 1392 258.01304044094684 L 1393 259.19721900782685 L 1394 260.42384681474937 L 1395 261.6925592370351 L 1396 263.00297914002476 L 1397 264.35471699118483 L 1398 265.74737097590065 L 1399 267.1805271169167 L 1400 268.6537593973963 L 1401 270.16662988755763 L 1402 271.7186888748521 L 1403 273.30947499764466 L 1404 274.9385153823576 L 1405 276.60532578403524 L 1406 278.30941073029015 L 1407 280.05026366858533 L 1408 281.82736711681275 L 1409 283.6401928171164 L 1410 285.4882018929228 L 1411 287.37084500912584 L 1412 289.28756253538074 L 1413 291.2377847124588 L 1414 293.22093182161245 L 1415 295.23641435690143 L 1416 297.28363320042814 L 1417 299.36197980042925 L 1418 301.47083635217444 L 1419 303.6095759816112 L 1420 305.77756293170944 L 1421 307.9741527514452 L 1422 310.19869248736836 L 1423 312.4505208776982 L 1424 314.7289685488889 L 1425 317.0333582146058 L 1426 319.3630048770536 L 1427 321.7172160305993 L 1428 324.0952918676218 L 1429 326.4965254865375 L 1430 328.9202031019314 L 1431 331.36560425673554 L 1432 333.83200203639063 L 1433 336.31866328492686 L 1434 338.8248488229003 L 1435 341.34981366711975 L 1436 343.89280725209835 L 1437 346.453073653167 L 1438 349.0298518111758 L 1439 351.62237575872683 L 1440 354.2298748478636 L 1441 356.85157397915185 L 1442 359.48669383208426 L 1443 362.13445109673916 L 1444 364.79405870662583 L 1445 367.46472607264616 L 1446 370.1456593181025 L 1447 372.83606151468626 L 1448 375.5351329193677 L 1449 378.2420712121279 L 1450 380.9560717344541 L 1451 383.67632772853074 L 1452 386.40203057705446 L 1453 389.1323700436021 L 1454 391.86653451347956 L 1455 394.6037112349801 L 1456 397.3430865609833 L 1457 400.0838461908149 L 1458 402.8251754123059 L 1459 405.56625934397204 L 1460 408.306283177243 L 1461 411.0444324186713 L 1462 413.77989313204625 L 1463 416.5118521803432 L 1464 419.23949746743483 L 1465 421.96201817949225 L 1466 424.6786050260082 L 1467 427.38845048036154 L 1468 430.0907490198631 L 1469 432.784697365203 L 1470 435.4694947192315 L 1471 438.1443430050026 L 1472 440.8084471030084 L 1473 443.4610150875344 L 1474 446.10125846206586 L 1475 448.7283923936741 L 1476 451.3416359463158 L 1477 453.94021231296983 L 1478 456.52334904655083 L 1479 459.09027828952475 L 1480 461.64023700216046 L 1481 464.1724671893494 L 1482 466.6862161259252 L 1483 469.1807365804177 L 1484 471.65528703717206 L 1485 474.10913191677275 L 1486 476.5415417946968 L 1487 478.95179361814326 L 1488 481.3391709209655 L 1489 483.7029640366466 L 1490 486.04247030925313 L 1491 488.35699430230505 L 1492 490.6458480054997 L 1493 492.90835103922836 L 1494 495.1438308568237 L 1495 497.35162294448133 L 1496 499.53107101878936 L 1497 501.68152722181503 L 1498 503.8023523136857 L 1499 505.8929158626071 L 1500 507.9525964322649 L 1501 509.9807817665511 L 1502 511.97686897156177 L 1503 513.9402646948124 L 1504 515.8703853016157 L 1505 517.7666570485736 L 1506 519.6285162541243 L 1507 521.4554094661023 L 1508 523.2467936262568 L 1509 525.0021362316793 L 1510 526.7209154930943 L 1511 528.4026204899654 L 1512 530.0467513223709 L 1513 531.6528192596014 L 1514 533.2203468854412 L 1515 534.7488682400817 L 1516 536.2379289586329 L 1517 537.6870864061862 L 1518 539.0959098093916 L 1519 540.4639803845087 L 1520 541.7908914618921 L 1521 543.0762486068788 L 1522 544.3196697370358 L 1523 545.5207852357374 L 1524 546.6792380620374 L 1525 547.7946838568005 L 1526 548.8667910450677 L 1527 549.8952409346182 L 1528 550.8797278107038 L 1529 551.8199590269251 L 1530 552.7156550922218 L 1531 553.5665497539557 L 1532 554.3723900770539 L 1533 555.1329365191974 L 1534 555.847963002027 L 1535 556.5172569783456 L 1536 557.1406194953003 L 1537 557.7178652535229 L 1538 558.248822662211 L 1539 558.7333338901353" stroke-linecap="round" stroke-linejoin="round" stroke-miterlimit="10" stroke-width="32"/></g></svg>